# xmcd
#
# Track frame offsets:
#	150
#	16185
#	31701
#	45737
#	64897
#	79323
#	89242
#	141762
#	155725
#	172129
#	186985
#	195981
#	208317
#	221322
#	234853
#
# Disc length: 3204 seconds
#
# Revision: 1
# Processed by: cddbd v1.5.2PL0 Copyright (c) Steve Scherf et al.
# Submitted via: audiograbber 1.83.01
#
DISCID=d40c820f
DTITLE=Thomas Dutronc - Comme un manouche sans guitare
DYEAR=1900
DGENRE=
TTITLE0=jeune je ne savais rien
TTITLE1=solitaires
TTITLE2=j'aime plus Paris
TTITLE3=veish a no drom
TTITLE4=september song
TTITLE5=j'suis pas d'ici
TTITLE6=Thomas Dutronc Jim's place
TTITLE7=N.A.S.D.A.Q
TTITLE8=je les veux toutes
TTITLE9=les frites bordel
TTITLE10=le Hourdon Jazz bar
TTITLE11=comme un manouche sans guitare
TTITLE12=china boy
TTITLE13=viens dans mon île
TTITLE14=canzone per Maria
EXTD=
EXTT0=
EXTT1=
EXTT2=
EXTT3=
EXTT4=
EXTT5=
EXTT6=
EXTT7=
EXTT8=
EXTT9=
EXTT10=
EXTT11=
EXTT12=
EXTT13=
EXTT14=
PLAYORDER=
